<?xml version="1.0" encoding="UTF-8"?>
<svg version="1.1" viewBox="0 0 1024 1024" xmlns="http://www.w3.org/2000/svg">
<path d="m785.44 393.73c-8.6596-19.346-12.234-40.448-10.146-62.435 2.1127-22.208 16.042-43.716 32.305-64.904 0.81069-2.125 10.134-14.47-8.6842-7.1734-4.6553 0.90895-19.665 6.7312-24.247 8.1192-39.625 11.951-53.211 36.555-64.474 81.793-4.164 16.705-3.9183 34.97-5.0484 52.572-1.3389 20.906-1.8056 41.886-3.0585 62.804-0.49132 8.1683-1.1792 16.595-3.341 24.321-11.571 41.296-52.916 68.528-89.569 59.512-29.75-7.3085-48.469-32.98-49.44-68.036-0.44219-16.177 2.3338-31.519 10.514-44.956 5.8959-9.6914 12.013-19.211 18.363-28.497 17.319-25.352 31.936-52.437 41.468-83.046 5.9942-19.248 7.1119-39.294 7.4927-59.352 0.30708-15.772 0.95809-31.899-1.388-47.29-6.1538-40.35-20.844-77.101-41.603-109.96-24.382-38.606-55.299-69.842-88.463-98.056-50.336-39.945-6.1784 61.6-5.4783 100.67 0.42991 24.112 0.38077 48.113-4.729 71.684-8.1069 37.341-25.684 68.38-47.99 96.251-25.426 31.752-54.218 59.131-83.157 86.326-34.344 32.28-69.007 64.118-99.862 101.05-33.68 40.313-60.052 85.859-75.075 139.65-6.4364 23.055-12.639 46.271-13.585 70.616-0.9458 24.554-0.93352 49.169-0.9458 73.748 0 8.721 0.39306 17.626 1.9039 26.151 12.922 72.937 42.377 134.77 92.369 182.55 35.768 34.184 64.978 50.57 105.29 65.813-12.517-13.254-20.808-25.782-32.219-44.047-43.826-70.137-59.364-148.85-50.263-234.28 4.0289-37.832 13.966-73.785 27.858-108.37 18.118-45.104 24.333-61.784 55.962-99.506 26.765-38.925 28.288-12.332 27.625-7.591-4.7413 33.693-8.2911 67.533-5.7362 101.7 2.6163 34.946 15.01 64.892 35.953 89.544 26.175 30.806 58.763 37.844 94.015 28.497 23.62-6.2644 47.241-10.588 71.463-9.5931 10.318 0.42991 20.685 0.086 30.585 5.0361 33.226 16.607 56.06 44.723 67.864 84.054 10.76 35.867 9.5194 72.667 1.9039 109.07-6.031 28.828-24.443 63.479-45.067 85.822 12.271-9.2247 22.834-21.692 35.683-31.936 14.703-9.9002 57.092-51.773 89.384-89.348 144.78-148.27 18.179-480.8 5.5643-508.98z" fill="#e05922" stroke-width="1.2283"/>
</svg>
