<svg width="148mm" height="148mm" viewBox="0 0 148 150" xmlns="http://www.w3.org/2000/svg"><path d="M50.783 145.827c-17.957-6.313-28.646-17.23-32.693-33.389-.716-2.859-.809-3.998-.803-9.866.008-7.252.352-9.64 2.256-15.641 2.318-7.306 6.174-13.598 12.145-19.821 3.878-4.04 7.633-7.319 17.053-14.886 11.574-9.298 16.755-14.983 19.365-21.253 1.568-3.766 2.056-6.509 2.06-11.579.006-5.42-.61-9.628-2.183-14.946-.66-2.233-1.15-4.11-1.088-4.172.062-.062 1.934 1.152 4.16 2.698 4.67 3.245 11.157 9.352 14.141 13.312 2.683 3.56 5.51 9.404 6.605 13.654.803 3.116.864 3.833.72 8.506-.119 3.875-.335 5.713-.896 7.637-1.147 3.937-3.745 8.62-6.995 12.604-4.02 4.933-4.761 6.521-4.756 10.206.005 3.504.638 4.922 3.244 7.265 2.092 1.88 4.209 2.603 7.615 2.598 1.857-.003 2.829-.2 4.262-.868 3.475-1.617 6.219-4.488 7.347-7.687.34-.96.611-4.024.838-9.444.189-4.509.536-8.769.793-9.724.806-3.001 2.347-5.694 4.479-7.823 2.41-2.408 4.503-3.606 7.985-4.57 2.937-.814 4.25-.907 3.973-.28-1.253 2.846-1.964 4.949-2.41 7.13-1.308 6.387-.261 9.779 6.422 20.819 4.278 7.066 5.931 10.457 7.15 14.663 1.347 4.643 1.707 9.124 1.243 15.438-.749 10.173-3.166 17.527-8.272 25.164-2.529 3.781-10.542 11.649-14.564 14.299-3.857 2.54-12.257 6.718-16.442 8.178-3.719 1.297-4.092 1.309-2.386.072 4.452-3.225 6.92-8.816 6.92-15.677 0-1.844-.227-4.15-.52-5.276-1.236-4.744-4.41-8.745-8.56-10.788-2.222-1.094-2.445-1.133-6.392-1.133-3.201 0-4.747.173-7.117.797-6.177 1.627-10.762.644-14.633-3.135-2.005-1.957-3.972-5.665-4.59-8.65-.549-2.65-.455-8.59.192-12.213.312-1.742.448-3.282.305-3.421-.388-.377-5.913 5.578-7.857 8.468-9.75 14.492-10.075 32.317-.835 45.684 1.642 2.375 5.497 6.376 7.652 7.94 1.63 1.183.26.936-4.933-.89z" fill="#e25822"/></svg>