<?xml version="1.0" encoding="UTF-8" standalone="no"?>
<!-- Created with Inkscape (http://www.inkscape.org/) -->

<svg
   width="193.14583mm"
   height="193.14583mm"
   viewBox="0 0 193.14583 193.14583"
   version="1.1"
   id="svg60"
   inkscape:version="1.1.1 (3bf5ae0d25, 2021-09-20, custom)"
   sodipodi:docname="flama-logo.svg"
   xmlns:inkscape="http://www.inkscape.org/namespaces/inkscape"
   xmlns:sodipodi="http://sodipodi.sourceforge.net/DTD/sodipodi-0.dtd"
   xmlns="http://www.w3.org/2000/svg"
   xmlns:svg="http://www.w3.org/2000/svg">
  <sodipodi:namedview
     id="namedview62"
     pagecolor="#ffffff"
     bordercolor="#666666"
     borderopacity="1.0"
     inkscape:pageshadow="2"
     inkscape:pageopacity="0.0"
     inkscape:pagecheckerboard="0"
     inkscape:document-units="mm"
     showgrid="false"
     inkscape:zoom="0.77771465"
     inkscape:cx="358.1005"
     inkscape:cy="392.17469"
     inkscape:window-width="1920"
     inkscape:window-height="1119"
     inkscape:window-x="0"
     inkscape:window-y="0"
     inkscape:window-maximized="1"
     inkscape:current-layer="layer1" />
  <defs
     id="defs57" />
  <g
     inkscape:label="Capa 1"
     inkscape:groupmode="layer"
     id="layer1"
     transform="translate(-10.157472,-44.422613)">
    <path
       style="display:inline;fill:#e25822;fill-opacity:1;stroke:none;stroke-width:2.09941;stroke-opacity:1"
       d="M 106.73039,44.422613 A 96.572913,96.572913 0 0 0 10.157472,140.99553 96.572913,96.572913 0 0 0 106.73039,237.56844 96.572913,96.572913 0 0 0 203.3033,140.99553 96.572913,96.572913 0 0 0 106.73039,44.422613 Z m -9.630939,21.907706 c 35.242499,20.796255 30.424119,48.516811 18.256249,60.642291 -5.715,5.69516 -5.94111,13.39822 0.6351,17.30696 8.09625,4.81218 19.05011,-2.38425 18.09761,-12.86175 -1.44637,-15.91008 3.65114,-25.55885 18.41489,-26.82885 -12.3825,23.15765 12.22355,26.9876 12.22355,54.6101 0,45.40249 -46.51344,54.29229 -46.51344,54.29229 8.41375,-4.28625 10.7951,-10.15979 10.95385,-17.77979 0.2305,-11.06582 -8.57266,-20.79632 -22.12164,-16.21607 -13.824275,4.67344 -24.820147,-8.05622 -18.836066,-27.91664 -23.177497,20.47875 -18.573538,53.18115 2.857707,64.4524 -50.958744,-11.43 -48.578069,-55.05545 -34.43614,-74.87967 20.306982,-28.46626 57.137079,-30.05377 40.46833,-74.821271 z"
       id="path3768"
       inkscape:connector-curvature="0" />
  </g>
</svg>
